<?xml version="1.0" encoding="utf-8"?>
<!-- Generator: Adobe Illustrator 25.3.1, SVG Export Plug-In . SVG Version: 6.00 Build 0)  -->
<svg version="1.1" id="Layer_1" xmlns="http://www.w3.org/2000/svg" xmlns:xlink="http://www.w3.org/1999/xlink" x="0px" y="0px"
	 viewBox="0 0 180 120" style="enable-background:new 0 0 180 120;" xml:space="preserve">
<style type="text/css">
	.st0{fill:#A98B2F;}
	.st1{fill:#00A3C9;}
	.st2{fill:url(#SVGID_1_);}
	.st3{fill:url(#SVGID_2_);}
	.st4{fill:url(#SVGID_3_);}
	.st5{fill:#F3BA19;}
	.st6{fill:url(#SVGID_4_);stroke:#FFFFFF;stroke-width:0.1069;stroke-miterlimit:10;}
	.st7{fill:url(#SVGID_5_);stroke:#FFFFFF;stroke-width:0.1069;stroke-miterlimit:10;}
	.st8{fill:url(#SVGID_6_);stroke:#FFFFFF;stroke-width:0.1069;stroke-miterlimit:10;}
	.st9{fill:url(#SVGID_7_);stroke:#FFFFFF;stroke-width:0.1069;stroke-miterlimit:10;}
	.st10{fill:url(#SVGID_8_);stroke:#FFFFFF;stroke-width:0.1069;stroke-miterlimit:10;}
	.st11{fill:url(#SVGID_9_);stroke:#FFFFFF;stroke-width:0.1069;stroke-miterlimit:10;}
	.st12{fill:url(#SVGID_10_);stroke:#FFFFFF;stroke-width:0.1069;stroke-miterlimit:10;}
	.st13{fill:url(#SVGID_11_);stroke:#FFFFFF;stroke-width:0.1069;stroke-miterlimit:10;}
	.st14{fill:url(#SVGID_12_);stroke:#FFFFFF;stroke-width:0.1069;stroke-miterlimit:10;}
	.st15{fill:url(#SVGID_13_);stroke:#FFFFFF;stroke-width:0.1069;stroke-miterlimit:10;}
	.st16{fill:url(#SVGID_14_);stroke:#FFFFFF;stroke-width:0.1069;stroke-miterlimit:10;}
	.st17{fill:#86C140;}
	.st18{fill:#FFFFFF;}
	.st19{fill:#5F97D0;}
</style>
<g>
	<path class="st0" d="M153.96,30.68h-15.91V19.34c-3.26-3.57-6.69-3.72-7.7-3.69l0,0c0,0-0.75,0.02-0.77,0.19l-0.02,0.46l0.48,0.07
		v14.32h-10.79c-4.49,3.43-3.81,8.16-3.81,8.16h14.61v10.77c2.58,3.38,5.91,3.77,7.34,3.77c-0.1,0.24-0.14,0.56,0.1,0.53
		c0.41-0.02,0.58-0.58,0.58-0.58V38.84h12.17C154.61,34.91,153.96,30.68,153.96,30.68z"/>
	<path class="st1" d="M132.11,59.97c-0.31-0.8-0.77-1.52-1.4-2.1c-0.48-0.46-0.97-0.89-1.52-1.26c-2.44-1.62-5.38-1.64-8.01-0.56
		c-2.58,1.06-4.92,3.81-3.84,6.74c1.04,2.82,4.71,4.37,7.27,2.7c0.43-0.29,1.83-1.26,1.86-1.88c-0.12,2.73-2.61,4.39-5.17,4.47
		c-2.7,0.1-5.75-2.2-6.37-4.76c-0.58-2.29-0.17-5.21,1.35-7.05c1.96-2.37,5.05-3.23,7.99-3.36c1.16-0.05,2.32,0,3.45,0.14
		c0.22,0.02,1.21,0.05,1.38,0.22c-2.78-3.81-6.93-6.52-11.54-7.53c-1.35-0.29-2.7-0.43-4.08-0.43c-10.02,0-18.27,7.63-19.26,17.38
		c1.76-0.31,3.62-0.12,5.36,0.27c3.84,0.82,7.03,3.31,10.28,5.29c4.27,2.61,8.76,5.09,13.93,4.49c2.03-0.24,3.98-0.99,5.62-2.25
		c1.01-0.77,1.98-1.69,2.61-2.8C133.37,65.35,133.13,62.38,132.11,59.97z M110.24,65.01c-2.22-3.55-2.05-8.59,0.31-12.05
		c1.5-2.2,3.79-3.74,6.4-4.3c1.18-0.24,2.39-0.31,3.6-0.22c0.43,0.02,1.04,0.24,1.47,0.19c-4.1,0.46-8.38,3.28-9.7,7.31
		c-1.4,4.22,0.34,8.55,3.55,11.39c0.97,0.87,2.99,2.68,4.39,2.75C116.35,69.91,112.42,68.47,110.24,65.01z M129.7,67.91
		c-0.94,0.77-2.1,1.26-3.28,1.55c0.72-0.17,1.57-1.13,2.03-1.67c1.3-1.5,2.12-4.3,1.52-6.25c-0.6-1.91-2.61-3.09-4.35-3.81
		c-0.19-0.07-0.36-0.14-0.56-0.22c0.22,0.07,0.68-0.02,0.92,0c0.72,0.05,1.45,0.17,2.15,0.39C132.45,59.29,133.08,65.18,129.7,67.91
		z"/>
	
		<linearGradient id="SVGID_1_" gradientUnits="userSpaceOnUse" x1="34.125" y1="12.264" x2="92.3055" y2="12.264" gradientTransform="matrix(1 0 0 -1 0 122)">
		<stop  offset="0.0622" style="stop-color:#224082"/>
		<stop  offset="0.4892" style="stop-color:#00599A"/>
		<stop  offset="0.9054" style="stop-color:#478ECC"/>
	</linearGradient>
	<path class="st2" d="M34.12,107.48c0,0,13.81,4.64,29.94,4.51c0,0,15.62-0.65,28.25-4.51C92.31,107.48,63.07,114.58,34.12,107.48z"
		/>
	
		<linearGradient id="SVGID_2_" gradientUnits="userSpaceOnUse" x1="47.5958" y1="11.5319" x2="162.6532" y2="11.5319" gradientTransform="matrix(1 0 0 -1 0 122)">
		<stop  offset="0.0622" style="stop-color:#224082"/>
		<stop  offset="0.4892" style="stop-color:#00599A"/>
		<stop  offset="0.9054" style="stop-color:#478ECC"/>
	</linearGradient>
	<path class="st3" d="M47.6,113.46c0,0,21.85,4.47,43-2.41c0,0,25.25-7.39,38.17-7.39c0,0,21.87,0.17,33.89,6.88
		c-1.21-0.68-3.38-0.68-4.71-0.89c-4.3-0.7-8.64-1.18-12.96-1.45c-13.11-0.8-25.52,1.13-38.24,4.08c-6.04,1.4-12.19,2.39-18.32,3.19
		C75.65,117.16,59.64,119.26,47.6,113.46z"/>
	
		<linearGradient id="SVGID_3_" gradientUnits="userSpaceOnUse" x1="87.5014" y1="7.4482" x2="166.9745" y2="7.4482" gradientTransform="matrix(1 0 0 -1 0 122)">
		<stop  offset="0.0622" style="stop-color:#224082"/>
		<stop  offset="0.4892" style="stop-color:#00599A"/>
		<stop  offset="0.9054" style="stop-color:#478ECC"/>
	</linearGradient>
	<path class="st4" d="M87.5,118.27c0,0,14.44-0.84,37.59-6.28c0,0,25.37-4.64,41.89,3.14c0,0-23.22-5.46-45.75,0.22
		C121.2,115.35,101.74,119.45,87.5,118.27z"/>
	<path class="st5" d="M153.5,31.24h-15.91V19.89c-3.89-4.27-8.04-3.65-8.04-3.65v15.02h-10.79c-4.49,3.43-3.81,8.16-3.81,8.16h14.61
		v10.77c3.36,4.39,8.04,3.72,8.04,3.72V39.42h12.17C154.13,35.46,153.5,31.24,153.5,31.24z"/>
	<g>
		
			<linearGradient id="SVGID_4_" gradientUnits="userSpaceOnUse" x1="20.9325" y1="23.8957" x2="21.1047" y2="39.3754" gradientTransform="matrix(1 0 0 -1 0 122)">
			<stop  offset="0.0622" style="stop-color:#224082"/>
			<stop  offset="0.4892" style="stop-color:#00599A"/>
			<stop  offset="0.9054" style="stop-color:#478ECC"/>
		</linearGradient>
		<path class="st6" d="M22.18,95.96c-1.69,0-3.11-0.53-4.27-1.59c-0.58-0.53-1.01-1.13-1.33-1.79c-0.29-0.65-0.46-1.38-0.46-2.17
			c0-0.8,0.14-1.55,0.46-2.2c0.31-0.65,0.77-1.26,1.38-1.79c1.21-1.09,2.68-1.62,4.37-1.62c1.21,0,2.27,0.22,3.21,0.68l0.29,1.86
			l-0.31,0.12c-0.72-1.45-1.81-2.17-3.26-2.17c-1.35,0-2.46,0.48-3.28,1.45c-0.82,0.92-1.23,2.15-1.23,3.72
			c0,1.33,0.43,2.51,1.33,3.55c0.87,1.01,1.98,1.52,3.28,1.52c0.8,0,1.5-0.29,2.08-0.84c0.27-0.24,0.48-0.51,0.7-0.82
			c0.19-0.29,0.36-0.65,0.48-1.01l0.29,0.1l-0.17,2.08C24.57,95.65,23.38,95.96,22.18,95.96z"/>
		
			<linearGradient id="SVGID_5_" gradientUnits="userSpaceOnUse" x1="33.4102" y1="23.757" x2="33.5823" y2="39.2368" gradientTransform="matrix(1 0 0 -1 0 122)">
			<stop  offset="0.0622" style="stop-color:#224082"/>
			<stop  offset="0.4892" style="stop-color:#00599A"/>
			<stop  offset="0.9054" style="stop-color:#478ECC"/>
		</linearGradient>
		<path class="st7" d="M39.7,90.41c0,1.55-0.6,2.87-1.81,3.96c-1.23,1.09-2.68,1.62-4.39,1.62c-1.69,0-3.16-0.53-4.39-1.62
			c-1.21-1.09-1.81-2.41-1.81-3.96c0-1.55,0.6-2.85,1.81-3.94c1.21-1.09,2.68-1.64,4.39-1.64c1.69,0,3.16,0.56,4.39,1.64
			C39.1,87.54,39.7,88.86,39.7,90.41z M38.06,90.41c0-1.45-0.41-2.68-1.23-3.65c-0.82-0.97-1.96-1.47-3.33-1.47
			c-1.4,0-2.51,0.48-3.33,1.47c-0.82,0.97-1.23,2.17-1.23,3.65c0,1.42,0.41,2.63,1.21,3.57c0.84,0.99,1.98,1.5,3.36,1.5
			c1.4,0,2.51-0.51,3.36-1.5C37.65,93.04,38.06,91.83,38.06,90.41z"/>
		
			<linearGradient id="SVGID_6_" gradientUnits="userSpaceOnUse" x1="45.9267" y1="23.6179" x2="46.0989" y2="39.0977" gradientTransform="matrix(1 0 0 -1 0 122)">
			<stop  offset="0.0622" style="stop-color:#224082"/>
			<stop  offset="0.4892" style="stop-color:#00599A"/>
			<stop  offset="0.9054" style="stop-color:#478ECC"/>
		</linearGradient>
		<path class="st8" d="M51.07,95.67c0,0.1-0.17,0.14-0.51,0.14h-1.42c-0.39,0-0.7-0.24-0.99-0.72l-1.96-3.74
			c-0.27-0.53-0.65-0.77-1.21-0.77h-0.46c-0.36,0-0.56,0.17-0.56,0.48v3.28c0,0.48,0.14,0.8,0.46,0.92
			c0.12,0.05,0.39,0.07,0.84,0.07c0.24,0,0.34,0.1,0.34,0.29c0,0.17-0.14,0.24-0.46,0.24c-0.12,0-0.27,0-0.43,0
			c-0.17,0-0.34-0.02-0.53-0.02c-0.17,0-0.36-0.02-0.53-0.02c-0.17,0-0.31-0.02-0.43-0.02c-0.12,0-0.29,0-0.48,0
			s-0.39,0.02-0.6,0.02c-0.22,0.02-0.41,0.02-0.53,0.02s-0.22,0-0.24,0c-0.31,0-0.46-0.07-0.46-0.24c0-0.19,0.12-0.29,0.36-0.29
			c0.43,0,0.7-0.02,0.82-0.07c0.31-0.12,0.46-0.43,0.46-0.92v-8.06c0-0.34-0.14-0.58-0.46-0.65c-0.14-0.05-0.41-0.07-0.8-0.07
			c-0.22,0-0.34-0.07-0.34-0.24c0-0.17,0.19-0.24,0.58-0.24c0.12,0,0.27,0,0.43,0s0.34,0,0.53,0.02c0.17,0,0.36,0.02,0.53,0.02
			c0.17,0,0.31,0,0.46,0c0.17,0,0.39,0,0.6,0c0.22,0,0.46,0,0.75-0.02h1.26c2.27,0,3.4,0.89,3.4,2.68c0,1.42-0.94,2.27-2.8,2.56
			c0.36,0.12,0.7,0.43,0.99,0.97l1.71,3.21c0.31,0.6,0.8,0.89,1.4,0.89C51,95.43,51.07,95.5,51.07,95.67z M48.03,87.83
			c0-1.57-0.89-2.37-2.68-2.37c-0.89,0-1.33,0.27-1.33,0.77v3.45c0,0.24,0.12,0.39,0.36,0.43c0.1,0.02,0.31,0.05,0.68,0.05
			c0.39,0,0.75-0.05,1.06-0.12c0.31-0.07,0.6-0.22,0.89-0.39C47.69,89.25,48.03,88.65,48.03,87.83z"/>
		
			<linearGradient id="SVGID_7_" gradientUnits="userSpaceOnUse" x1="55.6005" y1="23.5105" x2="55.7724" y2="38.9901" gradientTransform="matrix(1 0 0 -1 0 122)">
			<stop  offset="0.0622" style="stop-color:#224082"/>
			<stop  offset="0.4892" style="stop-color:#00599A"/>
			<stop  offset="0.9054" style="stop-color:#478ECC"/>
		</linearGradient>
		<path class="st9" d="M60.1,88.09c0,0.87-0.34,1.59-1.04,2.22c-0.68,0.6-1.47,0.89-2.39,0.89c-0.94,0-1.71-0.22-2.29-0.63v3.77
			c0,0.48,0.14,0.8,0.46,0.92c0.12,0.05,0.39,0.07,0.84,0.07c0.24,0,0.34,0.1,0.34,0.29c0,0.17-0.14,0.24-0.46,0.24
			c-0.12,0-0.27,0-0.43,0c-0.17,0-0.34-0.02-0.53-0.02c-0.17,0-0.36-0.02-0.53-0.02c-0.17,0-0.31-0.02-0.43-0.02
			c-0.12,0-0.29,0-0.48,0s-0.39,0.02-0.6,0.02c-0.22,0.02-0.41,0.02-0.53,0.02s-0.22,0-0.24,0c-0.31,0-0.46-0.07-0.46-0.24
			c0-0.19,0.12-0.29,0.36-0.29c0.43,0,0.7-0.02,0.82-0.07c0.31-0.12,0.46-0.43,0.46-0.92v-8.06c0-0.34-0.14-0.58-0.46-0.65
			c-0.14-0.05-0.41-0.07-0.8-0.07c-0.22,0-0.34-0.07-0.34-0.24s0.19-0.24,0.58-0.24c0.12,0,0.27,0,0.43,0c0.17,0,0.34,0,0.53,0.02
			c0.17,0,0.36,0.02,0.53,0.02c0.17,0,0.31,0,0.46,0c0.17,0,0.39,0,0.6,0c0.22,0,0.46,0,0.75-0.02h1.26c1.06,0,1.91,0.24,2.56,0.72
			C59.74,86.35,60.1,87.1,60.1,88.09z M58.63,88.14c0-0.41-0.07-0.77-0.22-1.11s-0.34-0.6-0.6-0.84c-0.27-0.24-0.58-0.41-0.92-0.53
			c-0.36-0.12-0.75-0.19-1.16-0.19c-0.89,0-1.33,0.27-1.33,0.77v3.69c0,0.24,0.19,0.43,0.6,0.58c0.36,0.14,0.72,0.19,1.11,0.19
			c0.36,0,0.7-0.07,0.99-0.22c0.31-0.14,0.58-0.31,0.8-0.56c0.22-0.24,0.41-0.51,0.53-0.82C58.56,88.79,58.63,88.48,58.63,88.14z"/>
		
			<linearGradient id="SVGID_8_" gradientUnits="userSpaceOnUse" x1="67.7349" y1="23.3756" x2="67.907" y2="38.8555" gradientTransform="matrix(1 0 0 -1 0 122)">
			<stop  offset="0.0622" style="stop-color:#224082"/>
			<stop  offset="0.4892" style="stop-color:#00599A"/>
			<stop  offset="0.9054" style="stop-color:#478ECC"/>
		</linearGradient>
		<path class="st10" d="M74.03,90.41c0,1.55-0.6,2.87-1.81,3.96c-1.23,1.09-2.68,1.62-4.39,1.62c-1.69,0-3.16-0.53-4.39-1.62
			c-1.21-1.09-1.81-2.41-1.81-3.96c0-1.55,0.6-2.85,1.81-3.94c1.21-1.09,2.68-1.64,4.39-1.64c1.69,0,3.16,0.56,4.39,1.64
			C73.43,87.54,74.03,88.86,74.03,90.41z M72.39,90.41c0-1.45-0.41-2.68-1.23-3.65c-0.82-0.99-1.93-1.47-3.33-1.47
			c-1.4,0-2.51,0.48-3.33,1.47c-0.82,0.97-1.23,2.17-1.23,3.65c0,1.42,0.41,2.63,1.21,3.57c0.84,0.99,1.98,1.5,3.36,1.5
			c1.4,0,2.51-0.51,3.36-1.5C71.98,93.04,72.39,91.83,72.39,90.41z"/>
		
			<linearGradient id="SVGID_9_" gradientUnits="userSpaceOnUse" x1="80.2515" y1="23.2365" x2="80.4234" y2="38.7164" gradientTransform="matrix(1 0 0 -1 0 122)">
			<stop  offset="0.0622" style="stop-color:#224082"/>
			<stop  offset="0.4892" style="stop-color:#00599A"/>
			<stop  offset="0.9054" style="stop-color:#478ECC"/>
		</linearGradient>
		<path class="st11" d="M85.4,95.67c0,0.1-0.17,0.14-0.51,0.14h-1.42c-0.39,0-0.7-0.24-0.99-0.72l-1.96-3.74
			c-0.27-0.53-0.65-0.77-1.21-0.77h-0.46c-0.36,0-0.56,0.17-0.56,0.48v3.28c0,0.48,0.14,0.8,0.46,0.92
			c0.12,0.05,0.39,0.07,0.84,0.07c0.24,0,0.34,0.1,0.34,0.29c0,0.17-0.14,0.24-0.46,0.24c-0.12,0-0.27,0-0.43,0
			c-0.17,0-0.34-0.02-0.53-0.02c-0.17,0-0.36-0.02-0.53-0.02s-0.31-0.02-0.43-0.02s-0.29,0-0.48,0s-0.39,0.02-0.6,0.02
			c-0.22,0.02-0.41,0.02-0.53,0.02s-0.22,0-0.24,0c-0.31,0-0.46-0.07-0.46-0.24c0-0.19,0.12-0.29,0.36-0.29
			c0.43,0,0.7-0.02,0.82-0.07c0.31-0.12,0.46-0.43,0.46-0.92v-8.06c0-0.34-0.14-0.58-0.46-0.65c-0.14-0.05-0.41-0.07-0.8-0.07
			c-0.22,0-0.34-0.07-0.34-0.24c0-0.17,0.19-0.24,0.58-0.24c0.12,0,0.27,0,0.43,0c0.17,0,0.34,0,0.53,0.02
			c0.17,0,0.36,0.02,0.53,0.02c0.17,0,0.31,0,0.46,0c0.17,0,0.39,0,0.6,0c0.22,0,0.46,0,0.75-0.02h1.26c2.27,0,3.4,0.89,3.4,2.68
			c0,1.42-0.94,2.27-2.8,2.56c0.36,0.12,0.7,0.43,0.99,0.97l1.71,3.21c0.31,0.6,0.8,0.89,1.4,0.89C85.33,95.43,85.4,95.5,85.4,95.67
			z M82.36,87.83c0-1.57-0.89-2.37-2.68-2.37c-0.89,0-1.33,0.27-1.33,0.77v3.45c0,0.24,0.12,0.39,0.36,0.43
			c0.1,0.02,0.31,0.05,0.68,0.05c0.39,0,0.75-0.05,1.06-0.12c0.31-0.07,0.6-0.22,0.89-0.39C82.02,89.25,82.36,88.65,82.36,87.83z"/>
		
			<linearGradient id="SVGID_10_" gradientUnits="userSpaceOnUse" x1="90.8809" y1="23.1185" x2="91.053" y2="38.5981" gradientTransform="matrix(1 0 0 -1 0 122)">
			<stop  offset="0.0622" style="stop-color:#224082"/>
			<stop  offset="0.4892" style="stop-color:#00599A"/>
			<stop  offset="0.9054" style="stop-color:#478ECC"/>
		</linearGradient>
		<path class="st12" d="M96.77,95.65c0,0.12-0.19,0.17-0.56,0.17c-0.12,0-0.29,0-0.46,0c-0.19,0-0.36-0.02-0.56-0.02
			s-0.36-0.02-0.53-0.02c-0.17,0-0.31,0-0.41,0c-0.12,0-0.29,0-0.46,0c-0.17,0-0.39,0.02-0.6,0.02c-0.22,0.02-0.41,0.02-0.56,0.02
			s-0.29,0-0.39,0c-0.27,0-0.41-0.07-0.41-0.19c0-0.17,0.14-0.27,0.46-0.27c0.8,0,1.21-0.19,1.21-0.56c0-0.05,0-0.12-0.02-0.17
			c-0.02-0.05-0.05-0.12-0.07-0.22l-1.09-2.56h-3.77l-0.99,2.37c-0.07,0.14-0.1,0.29-0.1,0.43c0,0.46,0.41,0.68,1.26,0.68
			c0.27,0,0.39,0.07,0.39,0.24c0,0.14-0.12,0.22-0.39,0.22c-0.12,0-0.27,0-0.41,0c-0.17,0-0.31,0-0.48-0.02
			c-0.17,0-0.34-0.02-0.51-0.02c-0.17,0-0.31,0-0.43,0c-0.1,0-0.22,0-0.36,0s-0.29,0.02-0.43,0.02s-0.29,0.02-0.41,0.02
			s-0.24,0-0.31,0c-0.19,0-0.31-0.07-0.31-0.24c0-0.14,0.14-0.24,0.41-0.24c0.65,0,1.13-0.39,1.45-1.16l3.79-9.37h0.27l3.79,9
			c0.12,0.29,0.22,0.53,0.34,0.72c0.1,0.19,0.22,0.36,0.34,0.46c0.12,0.12,0.27,0.19,0.41,0.24c0.14,0.05,0.31,0.07,0.48,0.07
			C96.63,95.41,96.77,95.48,96.77,95.65z M88.76,91.35h3.28l-1.69-4.13L88.76,91.35z"/>
		
			<linearGradient id="SVGID_11_" gradientUnits="userSpaceOnUse" x1="101.773" y1="22.9974" x2="101.9449" y2="38.4771" gradientTransform="matrix(1 0 0 -1 0 122)">
			<stop  offset="0.0622" style="stop-color:#224082"/>
			<stop  offset="0.4892" style="stop-color:#00599A"/>
			<stop  offset="0.9054" style="stop-color:#478ECC"/>
		</linearGradient>
		<path class="st13" d="M106.07,86.21c-0.17-0.22-0.41-0.39-0.7-0.48c-0.29-0.1-0.65-0.14-1.04-0.14c-0.82,0-1.3,0.02-1.42,0.07
			c-0.22,0.07-0.31,0.39-0.31,0.89v7.82c0,0.48,0.14,0.8,0.46,0.92c0.12,0.05,0.39,0.07,0.82,0.07c0.24,0,0.36,0.1,0.36,0.29
			c0,0.17-0.14,0.24-0.46,0.24c-0.12,0-0.27,0-0.43,0c-0.17,0-0.34-0.02-0.53-0.02s-0.36-0.02-0.53-0.02
			c-0.17,0-0.31-0.02-0.43-0.02s-0.29,0-0.46,0c-0.17,0-0.39,0.02-0.6,0.02c-0.22,0.02-0.41,0.02-0.53,0.02c-0.12,0-0.22,0-0.24,0
			c-0.31,0-0.46-0.07-0.46-0.24c0-0.19,0.12-0.29,0.34-0.29c0.43,0,0.72-0.02,0.84-0.07c0.31-0.12,0.46-0.43,0.46-0.92v-7.82
			c0-0.51-0.12-0.8-0.36-0.89c-0.12-0.05-0.6-0.07-1.45-0.07c-0.8,0-1.35,0.22-1.69,0.63c-0.1,0.1-0.17,0.27-0.27,0.46
			c-0.1,0.19-0.17,0.46-0.27,0.8l-0.36-0.02l0.14-2.37c0.02-0.31,0.12-0.48,0.29-0.48c0.02,0,0.07,0.02,0.12,0.07
			c0.05,0.05,0.1,0.1,0.17,0.17c0.07,0.07,0.17,0.12,0.27,0.17c0.1,0.05,0.24,0.07,0.41,0.07h7.41c0.17,0,0.29-0.02,0.41-0.07
			c0.1-0.05,0.19-0.1,0.27-0.17c0.07-0.07,0.12-0.12,0.17-0.17c0.05-0.05,0.07-0.07,0.12-0.07c0.17,0,0.27,0.17,0.29,0.48l0.14,2.37
			l-0.36,0.02C106.45,86.86,106.26,86.45,106.07,86.21z"/>
		
			<linearGradient id="SVGID_12_" gradientUnits="userSpaceOnUse" x1="109.8083" y1="22.9082" x2="109.9805" y2="38.3878" gradientTransform="matrix(1 0 0 -1 0 122)">
			<stop  offset="0.0622" style="stop-color:#224082"/>
			<stop  offset="0.4892" style="stop-color:#00599A"/>
			<stop  offset="0.9054" style="stop-color:#478ECC"/>
		</linearGradient>
		<path class="st14" d="M112.25,95.62c0,0.17-0.14,0.24-0.43,0.24c-0.12,0-0.27,0-0.43,0c-0.17,0-0.34-0.02-0.53-0.02
			c-0.19,0-0.36-0.02-0.53-0.02c-0.17,0-0.31-0.02-0.43-0.02s-0.29,0-0.46,0s-0.39,0.02-0.6,0.02c-0.22,0.02-0.41,0.02-0.53,0.02
			c-0.12,0-0.22,0-0.27,0c-0.31,0-0.46-0.07-0.46-0.24c0-0.19,0.12-0.29,0.36-0.29c0.43,0,0.7-0.02,0.82-0.07
			c0.31-0.12,0.46-0.43,0.46-0.92v-7.77c0-0.48-0.14-0.8-0.46-0.92c-0.12-0.05-0.39-0.07-0.82-0.07c-0.24,0-0.36-0.1-0.36-0.29
			c0-0.17,0.14-0.24,0.46-0.24c0.05,0,0.12,0,0.27,0c0.12,0,0.31,0.02,0.53,0.02c0.22,0.02,0.43,0.02,0.6,0.02s0.34,0,0.46,0
			s0.27,0,0.43,0c0.17,0,0.34-0.02,0.53-0.02c0.19,0,0.36-0.02,0.53-0.02c0.17,0,0.31-0.02,0.43-0.02c0.29,0,0.43,0.07,0.43,0.24
			c0,0.19-0.12,0.29-0.34,0.29c-0.43,0-0.72,0.02-0.84,0.07c-0.31,0.12-0.46,0.43-0.46,0.92v7.77c0,0.48,0.14,0.8,0.46,0.92
			c0.12,0.05,0.39,0.07,0.84,0.07C112.13,95.33,112.25,95.43,112.25,95.62z"/>
		
			<linearGradient id="SVGID_13_" gradientUnits="userSpaceOnUse" x1="119.6081" y1="22.7992" x2="119.7802" y2="38.2791" gradientTransform="matrix(1 0 0 -1 0 122)">
			<stop  offset="0.0622" style="stop-color:#224082"/>
			<stop  offset="0.4892" style="stop-color:#00599A"/>
			<stop  offset="0.9054" style="stop-color:#478ECC"/>
		</linearGradient>
		<path class="st15" d="M125.91,90.41c0,1.55-0.6,2.87-1.81,3.96c-1.23,1.09-2.68,1.62-4.39,1.62c-1.69,0-3.16-0.53-4.39-1.62
			c-1.21-1.09-1.81-2.41-1.81-3.96c0-1.55,0.6-2.85,1.81-3.94c1.21-1.09,2.68-1.64,4.39-1.64c1.69,0,3.16,0.56,4.39,1.64
			C125.31,87.54,125.91,88.86,125.91,90.41z M124.27,90.41c0-1.45-0.41-2.68-1.23-3.65c-0.82-0.97-1.96-1.47-3.33-1.47
			c-1.4,0-2.51,0.48-3.33,1.47c-0.82,0.97-1.23,2.17-1.23,3.65c0,1.42,0.41,2.63,1.21,3.57c0.84,0.99,1.98,1.5,3.36,1.5
			c1.4,0,2.51-0.51,3.36-1.5C123.86,93.04,124.27,91.83,124.27,90.41z"/>
		
			<linearGradient id="SVGID_14_" gradientUnits="userSpaceOnUse" x1="132.876" y1="22.652" x2="133.0479" y2="38.1316" gradientTransform="matrix(1 0 0 -1 0 122)">
			<stop  offset="0.0622" style="stop-color:#224082"/>
			<stop  offset="0.4892" style="stop-color:#00599A"/>
			<stop  offset="0.9054" style="stop-color:#478ECC"/>
		</linearGradient>
		<path class="st16" d="M138.95,85.27c0,0.14-0.1,0.22-0.29,0.22c-0.27,0-0.48,0-0.65,0.02s-0.31,0.07-0.41,0.14
			c-0.1,0.07-0.17,0.17-0.22,0.31c-0.05,0.14-0.05,0.31-0.05,0.56v9.49h-0.22l-7.87-9.75v8.16c0,0.24,0.02,0.41,0.05,0.56
			c0.05,0.14,0.1,0.24,0.22,0.29c0.1,0.07,0.24,0.12,0.41,0.12c0.17,0.02,0.39,0.02,0.65,0.02c0.19,0,0.29,0.07,0.29,0.24
			c0,0.14-0.14,0.19-0.46,0.19c-0.1,0-0.19,0-0.34,0c-0.12,0-0.27-0.02-0.39-0.02c-0.12,0-0.27-0.02-0.39-0.02
			c-0.12,0-0.22,0-0.31,0c-0.1,0-0.22,0-0.34,0.02c-0.12,0-0.27,0.02-0.39,0.02c-0.12,0-0.27,0.02-0.39,0.02s-0.22,0-0.29,0
			c-0.31,0-0.48-0.07-0.48-0.22s0.1-0.24,0.34-0.24c0.27,0,0.46,0,0.63-0.02c0.17-0.02,0.29-0.07,0.39-0.12
			c0.1-0.07,0.17-0.17,0.19-0.29c0.05-0.12,0.05-0.31,0.05-0.53v-8.21c0-0.43-0.39-0.65-1.13-0.65c-0.29,0-0.43-0.07-0.43-0.22
			c0-0.17,0.14-0.24,0.41-0.24h2.44l6.81,8.38v-7c0-0.22-0.02-0.41-0.05-0.53c-0.05-0.12-0.1-0.24-0.19-0.29
			c-0.1-0.07-0.22-0.12-0.39-0.14c-0.17-0.02-0.39-0.02-0.63-0.02c-0.22,0-0.34-0.07-0.34-0.22s0.17-0.24,0.48-0.24
			c0.07,0,0.17,0,0.29,0.02c0.12,0,0.24,0.02,0.39,0.02s0.27,0.02,0.39,0.02c0.12,0,0.24,0.02,0.34,0.02c0.1,0,0.19,0,0.31,0
			c0.12,0,0.24-0.02,0.39-0.02c0.12,0,0.27-0.02,0.39-0.02c0.12,0,0.24,0,0.34,0C138.8,85.07,138.95,85.15,138.95,85.27z"/>
	</g>
	<path class="st17" d="M87.6,67.81c0.39-0.02,0.99-0.46,1.35-0.6c1.23-0.48,2.51-0.8,3.81-0.99c5.48-0.72,9.25,2.32,13.69,4.88
		c4.64,2.66,9.7,4.76,15.02,5.46c2.41,0.31,4.88,0.34,7.29-0.1c0,0-6.83,8.52-19.87,6.45c0,0-8.52-1.42-13.66-10.84
		c0,0-1.55-2.32-3.48-2.97c0,0,2.7-0.89,7.87,3.48c5.91,5.02,13.59,6.98,21.29,6.18c-0.89,0.1-1.86-0.07-2.73-0.22
		c-3.48-0.48-6.71-1.67-9.83-3.26c-2.99-1.52-6.01-3.02-8.69-5.09c-1.88-1.47-4.68-2.22-7.03-2.41
		C90.95,67.69,89.29,67.72,87.6,67.81z"/>
	<path class="st18" d="M14.52,79.72c-0.19,0-0.39-0.07-0.53-0.24c-0.14-0.14-0.22-0.34-0.19-0.56l0.12-2.2
		c0.02-0.29,0.19-0.53,0.46-0.63c0.02,0,2.58-1.09,4.83-3.96V9.87c-0.02-0.36-0.58-4.15-5.5-4.47c-0.39-0.02-0.68-0.34-0.68-0.72
		V1.96c0-0.41,0.34-0.72,0.72-0.72h34.64c7.31,0,16.51,0.8,22.77,6.98c3.94,3.89,5.02,9.08,5.24,12.75
		c0.27,4.66-0.72,9.61-2.7,13.59c-4.01,7.99-12.99,12.38-25.98,12.67c-0.12,0-0.36,0-0.68,0c-1.01,0-3.57-0.02-5.99-0.07
		c-1.23-0.02-2.22-0.07-2.92-0.12c-0.17,0-0.31-0.02-0.46-0.02v25.2c0.51,0.72,2.82,3.65,6.37,3.74c0.39,0,0.7,0.34,0.7,0.72v2.32
		c0,0.41-0.34,0.72-0.72,0.72C44.02,79.72,14.52,79.72,14.52,79.72z M48.03,40.32c2.58,0,5.72-2.27,7.48-4.49
		c2.37-2.97,2.92-7.27,3.14-11.08c0.27-4.49-0.58-8.26-2.56-11.15c-3.33-4.9-9.46-5.91-14.03-5.91c-1.45,0-2.97,0.1-4.49,0.29v32.35
		C37.58,40.32,48.03,40.32,48.03,40.32z"/>
	<path class="st19" d="M70.65,8.72C64.74,2.9,56.21,1.96,48.39,1.96c-7.12,0-14.24,0-21.37,0c-4.42,0-8.86,0-13.28,0v2.7
		c5.79,0.39,6.18,5.17,6.18,5.17V72.4c-2.46,3.23-5.29,4.39-5.29,4.39l-0.12,2.2h29.55v-2.32c-4.51-0.12-7.1-4.25-7.1-4.25V46.11
		c0,0.34,9.7,0.41,10.74,0.39c9.73-0.22,20.59-2.8,25.35-12.26C76.83,26.63,77.07,15.04,70.65,8.72z M59.38,24.79
		c-0.24,3.89-0.82,8.35-3.31,11.49c-1.76,2.22-5.07,4.78-8.06,4.78H36.83V7.34c6.86-1.01,15.57-0.46,19.84,5.84
		C59.01,16.59,59.62,20.76,59.38,24.79z"/>
	<path class="st18" d="M64.16,79.28v-3.07l0.7-0.02c0.07,0,1.81-0.12,2.66-1.83V48.04c0-1.13,0-2.32-0.41-3.26
		c-0.29-0.63-0.65-0.82-1.57-0.82c-0.22,0-0.43,0-0.68,0.02c-0.24,0-0.51,0.02-0.77,0.02h-0.72v-3.65h15.21v5.62
		c1.55-1.5,4.54-3.81,9.42-5.58h0.02h0.02c0.07-0.02,1.71-0.48,4.01-0.48c1.35,0,2.66,0.17,3.86,0.48l0.56,0.14v10.77h-7.39
		l-0.12-0.58c0-0.02-0.82-3.62-3.43-3.67H85.5h-0.02c0,0-0.07,0-0.19,0c-0.97,0-4.27,0.36-6.4,4.97v22.07
		c0.51,0.56,2.17,2.2,4.3,2.66l0.58,0.12v2.44h-19.6V79.28z"/>
	<path class="st19" d="M64.06,41.04H77.8v6.78c0,0,2.9-4.06,10.38-6.78c0,0,3.55-1.04,7.48,0v9.49H89.6c0,0-0.89-4.2-4.13-4.25
		c0,0-4.71-0.51-7.41,5.55v22.5c0,0,2.03,2.49,4.88,3.09v1.11H64.88v-1.64c0,0,2.32-0.1,3.36-2.41c0-3.48,0-6.95,0-10.4
		c0-5.26,0-10.53,0-15.79c0-1.26,0.05-2.68-0.48-3.86c-0.72-1.59-2.22-1.21-3.69-1.21V41.04z"/>
</g>
</svg>
